HIERARCHY
ROOT Hips
{
	OFFSET 0.000000 100.481300 0.000000
	CHANNELS 6 Xposition Yposition Zposition Xrotation Yrotation Zrotation
	JOINT Spine
	{
		OFFSET -0.279200 12.230698 -2.892100
		CHANNELS 3 Xrotation Yrotation Zrotation
		JOINT Spine1
		{
			OFFSET -0.325700 14.269203 -3.374200
			CHANNELS 3 Xrotation Yrotation Zrotation
			JOINT Spine2
			{
				OFFSET -0.372300 16.307602 -0.352600
				CHANNELS 3 Xrotation Yrotation Zrotation
				JOINT Neck
				{
					OFFSET -0.418800 17.814194 8.416900
					CHANNELS 3 Xrotation Yrotation Zrotation
					JOINT Head
					{
						OFFSET 0.000000 7.031097 3.806800
						CHANNELS 3 Xrotation Yrotation Zrotation
						JOINT HeadTop_End
						{
							OFFSET 0.000000 24.646606 12.978600
							CHANNELS 3 Xrotation Yrotation Zrotation
							End Site
							{
								OFFSET 0.000000 27.854965 0.000000
							}
						}
					}
				}
				JOINT LeftShoulder
				{
					OFFSET 16.952999 14.495407 -7.737500
					CHANNELS 3 Xrotation Yrotation Zrotation
					JOINT LeftArm
					{
						OFFSET 9.308998 -2.777710 0.208600
						CHANNELS 3 Xrotation Yrotation Zrotation
						JOINT LeftForeArm
						{
							OFFSET 29.972298 0.000000 0.000000
							CHANNELS 3 Xrotation Yrotation Zrotation
							JOINT LeftHand
							{
								OFFSET 26.026505 0.000000 0.000000
								CHANNELS 3 Xrotation Yrotation Zrotation
								JOINT LeftHandThumb1
								{
									OFFSET 12.240501 -7.147949 9.207150
									CHANNELS 3 Xrotation Yrotation Zrotation
									JOINT LeftHandThumb2
									{
										OFFSET 4.138618 -2.389435 2.389433
										CHANNELS 3 Xrotation Yrotation Zrotation
										JOINT LeftHandThumb3
										{
											OFFSET 2.726913 -1.574387 1.574386
											CHANNELS 3 Xrotation Yrotation Zrotation
											JOINT LeftHandThumb4
											{
												OFFSET 3.941010 -2.275345 2.275342
												CHANNELS 3 Xrotation Yrotation Zrotation
												End Site
												{
													OFFSET -0.005798 5.087799 0.009903
												}
											}
										}
									}
								}
								JOINT LeftHandIndex1
								{
									OFFSET 24.424698 -1.985611 5.953459
									CHANNELS 3 Xrotation Yrotation Zrotation
									JOINT LeftHandIndex2
									{
										OFFSET 6.426697 0.000000 0.000000
										CHANNELS 3 Xrotation Yrotation Zrotation
										JOINT LeftHandIndex3
										{
											OFFSET 5.337898 0.000000 0.000000
											CHANNELS 3 Xrotation Yrotation Zrotation
											JOINT LeftHandIndex4
											{
												OFFSET 4.409401 0.000000 0.000000
												CHANNELS 3 Xrotation Yrotation Zrotation
												End Site
												{
													OFFSET 0.000000 4.409363 0.014373
												}
											}
										}
									}
								}
								JOINT LeftHandMiddle1
								{
									OFFSET 23.810104 0.000000 0.000000
									CHANNELS 3 Xrotation Yrotation Zrotation
									JOINT LeftHandMiddle2
									{
										OFFSET 7.176498 0.000000 0.000000
										CHANNELS 3 Xrotation Yrotation Zrotation
										JOINT LeftHandMiddle3
										{
											OFFSET 6.774902 0.000000 0.000000
											CHANNELS 3 Xrotation Yrotation Zrotation
											JOINT LeftHandMiddle4
											{
												OFFSET 5.403328 0.000000 0.000000
												CHANNELS 3 Xrotation Yrotation Zrotation
												End Site
												{
													OFFSET -0.027702 5.403244 0.017414
												}
											}
										}
									}
								}
								JOINT LeftHandRing1
								{
									OFFSET 22.908401 -0.839279 -6.020567
									CHANNELS 3 Xrotation Yrotation Zrotation
									JOINT LeftHandRing2
									{
										OFFSET 6.337502 0.000000 0.000000
										CHANNELS 3 Xrotation Yrotation Zrotation
										JOINT LeftHandRing3
										{
											OFFSET 5.779297 0.000000 0.000000
											CHANNELS 3 Xrotation Yrotation Zrotation
											JOINT LeftHandRing4
											{
												OFFSET 4.965698 0.000000 0.000000
												CHANNELS 3 Xrotation Yrotation Zrotation
												End Site
												{
													OFFSET 0.000000 4.965668 0.016186
												}
											}
										}
									}
								}
								JOINT LeftHandPinky1
								{
									OFFSET 20.037003 -1.530319 -10.950146
									CHANNELS 3 Xrotation Yrotation Zrotation
									JOINT LeftHandPinky2
									{
										OFFSET 5.254700 0.000000 0.000000
										CHANNELS 3 Xrotation Yrotation Zrotation
										JOINT LeftHandPinky3
										{
											OFFSET 4.810204 0.000000 0.000000
											CHANNELS 3 Xrotation Yrotation Zrotation
											JOINT LeftHandPinky4
											{
												OFFSET 3.647202 0.000000 0.000000
												CHANNELS 3 Xrotation Yrotation Zrotation
												End Site
												{
													OFFSET 0.000000 3.647186 0.011889
												}
											}
										}
									}
								}
							}
						}
					}
				}
				JOINT RightShoulder
				{
					OFFSET -15.141001 14.495407 -7.737500
					CHANNELS 3 Xrotation Yrotation Zrotation
					JOINT RightArm
					{
						OFFSET -9.308998 -2.777710 0.208500
						CHANNELS 3 Xrotation Yrotation Zrotation
						JOINT RightForeArm
						{
							OFFSET -29.972300 0.000000 0.000000
							CHANNELS 3 Xrotation Yrotation Zrotation
							JOINT RightHand
							{
								OFFSET -26.026505 0.000000 0.000000
								CHANNELS 3 Xrotation Yrotation Zrotation
								JOINT RightHandThumb1
								{
									OFFSET -12.240601 -7.148026 9.207092
									CHANNELS 3 Xrotation Yrotation Zrotation
									JOINT RightHandThumb2
									{
										OFFSET -4.138618 -2.389435 2.389433
										CHANNELS 3 Xrotation Yrotation Zrotation
										JOINT RightHandThumb3
										{
											OFFSET -2.726974 -1.574417 1.574421
											CHANNELS 3 Xrotation Yrotation Zrotation
											JOINT RightHandThumb4
											{
												OFFSET -3.941010 -2.275345 2.275343
												CHANNELS 3 Xrotation Yrotation Zrotation
												End Site
												{
													OFFSET 0.005814 5.087799 0.009927
												}
											}
										}
									}
								}
								JOINT RightHandIndex1
								{
									OFFSET -24.424698 -1.985657 5.953444
									CHANNELS 3 Xrotation Yrotation Zrotation
									JOINT RightHandIndex2
									{
										OFFSET -6.426697 0.000000 0.000000
										CHANNELS 3 Xrotation Yrotation Zrotation
										JOINT RightHandIndex3
										{
											OFFSET -5.337898 0.000000 0.000000
											CHANNELS 3 Xrotation Yrotation Zrotation
											JOINT RightHandIndex4
											{
												OFFSET -4.409401 0.000000 0.000000
												CHANNELS 3 Xrotation Yrotation Zrotation
												End Site
												{
													OFFSET 0.000000 4.409363 0.014408
												}
											}
										}
									}
								}
								JOINT RightHandMiddle1
								{
									OFFSET -23.810097 0.000000 0.000000
									CHANNELS 3 Xrotation Yrotation Zrotation
									JOINT RightHandMiddle2
									{
										OFFSET -7.176498 0.000000 0.000000
										CHANNELS 3 Xrotation Yrotation Zrotation
										JOINT RightHandMiddle3
										{
											OFFSET -6.774902 0.000000 0.000000
											CHANNELS 3 Xrotation Yrotation Zrotation
											JOINT RightHandMiddle4
											{
												OFFSET -5.403328 0.000000 0.000000
												CHANNELS 3 Xrotation Yrotation Zrotation
												End Site
												{
													OFFSET 0.027702 5.403244 0.017457
												}
											}
										}
									}
								}
								JOINT RightHandRing1
								{
									OFFSET -22.908302 -0.839325 -6.020576
									CHANNELS 3 Xrotation Yrotation Zrotation
									JOINT RightHandRing2
									{
										OFFSET -6.337502 0.000000 0.000000
										CHANNELS 3 Xrotation Yrotation Zrotation
										JOINT RightHandRing3
										{
											OFFSET -5.779297 0.000000 0.000000
											CHANNELS 3 Xrotation Yrotation Zrotation
											JOINT RightHandRing4
											{
												OFFSET -4.965698 0.000000 0.000000
												CHANNELS 3 Xrotation Yrotation Zrotation
												End Site
												{
													OFFSET 0.000000 4.965668 0.016226
												}
											}
										}
									}
								}
								JOINT RightHandPinky1
								{
									OFFSET -20.037003 -1.530334 -10.950259
									CHANNELS 3 Xrotation Yrotation Zrotation
									JOINT RightHandPinky2
									{
										OFFSET -5.254700 0.000000 0.000000
										CHANNELS 3 Xrotation Yrotation Zrotation
										JOINT RightHandPinky3
										{
											OFFSET -4.810204 0.000000 0.000000
											CHANNELS 3 Xrotation Yrotation Zrotation
											JOINT RightHandPinky4
											{
												OFFSET -3.647202 0.000000 0.000000
												CHANNELS 3 Xrotation Yrotation Zrotation
												End Site
												{
													OFFSET 0.000000 3.647186 0.011917
												}
											}
										}
									}
								}
							}
						}
					}
				}
			}
		}
	}
	JOINT LeftUpLeg
	{
		OFFSET 15.427100 -6.655098 0.678600
		CHANNELS 3 Xrotation Yrotation Zrotation
		JOINT LeftLeg
		{
			OFFSET 4.081073 -39.591068 13.024000
			CHANNELS 3 Xrotation Yrotation Zrotation
			JOINT LeftFoot
			{
				OFFSET -4.081074 -37.707932 -15.979700
				CHANNELS 3 Xrotation Yrotation Zrotation
				JOINT LeftToeBase
				{
					OFFSET 5.346399 -15.068900 20.645000
					CHANNELS 3 Xrotation Yrotation Zrotation
					JOINT LeftToe_End
					{
						OFFSET 2.754700 0.931300 11.300900
						CHANNELS 3 Xrotation Yrotation Zrotation
						End Site
						{
							OFFSET 0.000000 11.669021 0.000000
						}
					}
				}
			}
		}
	}
	JOINT RightUpLeg
	{
		OFFSET -15.569500 -6.655098 0.678600
		CHANNELS 3 Xrotation Yrotation Zrotation
		JOINT RightLeg
		{
			OFFSET -4.081825 -39.591045 13.023800
			CHANNELS 3 Xrotation Yrotation Zrotation
			JOINT RightFoot
			{
				OFFSET 4.081824 -37.707954 -15.979600
				CHANNELS 3 Xrotation Yrotation Zrotation
				JOINT RightToeBase
				{
					OFFSET -5.346400 -15.068900 20.645000
					CHANNELS 3 Xrotation Yrotation Zrotation
					JOINT RightToe_End
					{
						OFFSET -2.754700 0.931300 11.300900
						CHANNELS 3 Xrotation Yrotation Zrotation
						End Site
						{
							OFFSET 0.000000 11.669021 0.000000
						}
					}
				}
			}
		}
	}
}
MOTION
Frames: 5
Frame Time: 0.033333
3.405613 116.987869 179.287018 4.892497 7.932129 0.402533 6.387499 3.035591 -1.190673 12.727479 5.600827 -2.002855 12.815384 5.377088 -2.045203 -2.241525 -1.300141 -7.823170 -3.110440 -19.419488 12.462494 -0.000001 0.000000 -0.000000 0.583678 -2.518315 28.091701 -99.135449 7.343966 -91.365740 0.000042 -66.124578 0.000051 6.981363 -7.447146 -15.219405 13.827855 6.834673 -4.397613 5.568749 20.518967 4.617246 0.418480 7.799955 4.649699 0.000002 0.000000 -0.000001 0.020219 -0.528393 4.382897 0.268388 1.907294 -16.018221 0.067397 0.963041 -8.006880 -0.000003 0.000003 0.000002 0.020358 -0.530318 4.398878 0.268919 1.909150 -16.034223 0.067403 0.963039 -8.006872 -0.000001 -0.000002 -0.000001 0.020219 -0.528393 4.382896 0.268385 1.907297 -16.018219 0.067400 0.963040 -8.006876 0.000002 -0.000000 -0.000002 -0.307976 3.512598 4.901875 0.267349 -2.149378 -16.509385 0.067400 0.963040 -8.006868 -0.000004 -0.000001 -0.000002 1.695747 10.474199 -6.362138 -25.342275 -9.028200 92.827885 0.000008 61.156872 0.000001 62.165704 4.382031 -2.129140 -2.564341 -23.565826 8.231507 4.637199 -8.634122 -0.225403 -1.273768 0.137313 -2.094870 0.000001 0.000000 0.000000 3.603923 -6.093916 61.169064 4.357042 -6.449182 68.054953 1.185843 -3.888943 33.904683 0.000001 0.000003 -0.000002 3.603922 -6.093916 61.169064 4.357045 -6.449182 68.054953 1.185856 -3.888952 33.904687 0.000000 0.000000 0.000002 3.603923 -6.093915 61.169064 4.357044 -6.449189 68.054953 1.185844 -3.888941 33.904687 0.000001 -0.000001 -0.000000 3.603923 -6.093916 61.169064 4.357050 -6.449190 68.054946 1.185846 -3.888938 33.904683 -0.000001 0.000002 -0.000001 -51.143958 5.527104 18.567043 46.825219 -3.159737 -6.799741 -2.887016 0.736485 -11.256054 -0.001796 0.000007 -0.000002 0.000000 -0.000000 -0.000000 -33.667246 -8.472376 -24.334830 16.620406 -3.826598 5.504089 36.539214 5.093626 34.280655 -0.214399 0.000000 -0.000011 -0.000001 -0.000001 -0.000001 
3.322643 107.850143 187.930740 2.669383 1.880068 1.029957 6.586948 4.190494 -0.719457 13.206464 7.361827 -2.118942 13.281790 7.224008 -2.040399 -0.632766 -1.496384 -9.127680 -1.449487 -19.697658 12.082925 -0.000001 0.000000 -0.000000 0.633932 -2.419320 22.942476 -85.452183 5.495995 -89.137548 -0.000063 -73.971782 -0.000052 2.749967 -4.791656 -18.791391 13.827854 6.834680 -4.397611 5.568739 20.518973 4.617246 0.418489 7.799954 4.649697 0.000001 -0.000000 0.000001 0.020219 -0.528407 4.382890 0.268386 1.907293 -16.018219 0.067399 0.963040 -8.006878 -0.000001 0.000001 0.000001 0.020354 -0.530318 4.398876 0.268921 1.909147 -16.034223 0.067400 0.963035 -8.006874 0.000003 0.000001 0.000000 0.020219 -0.528407 4.382889 0.268383 1.907296 -16.018218 0.067401 0.963042 -8.006875 0.000001 -0.000002 -0.000001 -0.307961 3.512600 4.901862 0.267347 -2.149373 -16.509382 0.067399 0.963039 -8.006869 -0.000000 -0.000000 0.000002 1.922514 11.699072 -5.761848 -28.472241 -9.773958 93.620583 0.000002 56.215046 -0.000005 61.360644 3.578613 -2.682154 -2.564341 -23.565811 8.231495 4.637196 -8.634118 -0.225405 -1.273769 0.137313 -2.094873 -0.000003 0.000000 -0.000004 3.603920 -6.093900 61.169002 4.357038 -6.449184 68.054912 1.185838 -3.888919 33.904670 0.000001 0.000000 -0.000002 3.603921 -6.093900 61.169002 4.357040 -6.449185 68.054912 1.185842 -3.888922 33.904670 0.000001 0.000001 -0.000002 3.603913 -6.093901 61.169009 4.357043 -6.449194 68.054905 1.185839 -3.888919 33.904670 -0.000002 0.000000 -0.000002 3.603921 -6.093900 61.169002 4.357046 -6.449191 68.054912 1.185837 -3.888913 33.904670 -0.000001 -0.000000 0.000002 -49.410873 7.325350 21.278133 36.933862 -0.729821 -9.034219 -5.891614 1.522229 -13.789996 -0.001796 -0.000000 0.000001 -0.000002 -0.000003 0.000001 -26.265313 -10.394950 -19.959718 10.868704 -4.302932 6.542226 35.400833 4.661869 28.593783 0.927386 -0.000001 0.000004 0.000000 -0.000001 0.000002 
2.462669 95.400528 196.335907 1.045723 -4.325226 2.693608 7.509008 4.360499 -1.503509 14.546071 9.050059 -2.334886 14.583671 9.012206 -2.158433 -2.953806 -1.694302 -9.408479 -3.125192 -19.295865 10.120048 0.000001 0.000000 0.000000 -0.142832 -0.863149 14.327256 -67.929728 0.246300 -83.094435 -0.000527 -84.286918 -0.000497 -2.695544 -2.758526 -14.671349 13.827856 6.834672 -4.397612 5.568741 20.518971 4.617249 0.418490 7.799956 4.649697 -0.000000 -0.000001 -0.000001 0.020213 -0.528427 4.383142 0.268385 1.907296 -16.018221 0.067399 0.963042 -8.006880 0.000003 -0.000001 -0.000001 0.020361 -0.530343 4.399131 0.268923 1.909151 -16.034219 0.067402 0.963038 -8.006869 0.000002 0.000000 -0.000000 0.020213 -0.528427 4.383142 0.268382 1.907299 -16.018218 0.067401 0.963040 -8.006878 -0.000001 0.000000 0.000002 -0.307970 3.512577 4.902119 0.267347 -2.149378 -16.509385 0.067398 0.963042 -8.006869 0.000002 0.000001 0.000001 1.700080 11.704133 -3.793626 -34.648518 -8.962071 93.334542 0.000006 50.762024 -0.000008 61.794081 2.538980 -2.786242 -2.564341 -23.565778 8.231470 4.637198 -8.634119 -0.225399 -1.273770 0.137311 -2.094874 -0.000002 -0.000000 0.000000 3.603801 -6.093838 61.167841 4.356879 -6.449114 68.053621 1.185800 -3.888869 33.904035 -0.000001 0.000002 0.000001 3.603803 -6.093837 61.167848 4.356883 -6.449115 68.053621 1.185797 -3.888869 33.904024 0.000000 0.000000 -0.000001 3.603796 -6.093838 61.167848 4.356885 -6.449127 68.053628 1.185803 -3.888869 33.904035 -0.000001 0.000002 -0.000001 3.603803 -6.093837 61.167848 4.356887 -6.449122 68.053621 1.185798 -3.888866 33.904035 0.000001 -0.000000 0.000001 -50.976980 10.544906 23.607550 30.155893 -2.330802 -9.501529 -5.747369 2.052039 -14.886252 -0.001795 0.000000 0.000001 0.000002 0.000000 -0.000000 -29.178493 -7.021454 -13.480334 27.261839 -4.890091 1.178577 11.145768 2.413824 14.053527 -10.051179 0.049812 -1.383935 -0.000000 -0.000001 0.000000 
2.453366 81.563576 203.833755 0.545264 -9.336291 4.423512 9.214862 3.908718 -2.656434 16.976746 10.744886 -2.760282 17.022896 10.658964 -2.712424 -6.171623 -1.892607 -9.548194 -4.192539 -18.339417 2.626408 -0.000002 -0.000000 0.000000 -0.581484 2.172246 3.764133 -50.798210 -4.276891 -73.778542 0.007701 -91.113296 0.008020 -7.687503 -2.143592 -7.673027 13.827855 6.834677 -4.397613 5.568746 20.518971 4.617248 0.418489 7.799955 4.649697 0.000005 0.000001 -0.000000 0.020225 -0.528401 4.382879 0.268387 1.907297 -16.018219 0.067402 0.963041 -8.006879 -0.000002 -0.000001 -0.000000 0.020374 -0.530335 4.398857 0.268921 1.909150 -16.034221 0.067400 0.963038 -8.006873 -0.000000 -0.000000 -0.000001 0.020225 -0.528401 4.382879 0.268384 1.907297 -16.018218 0.067400 0.963041 -8.006880 -0.000001 -0.000001 -0.000002 -0.307961 3.512603 4.901849 0.267347 -2.149377 -16.509382 0.067403 0.963040 -8.006869 -0.000000 0.000000 0.000001 1.211077 10.311380 -0.393146 -44.021952 -6.387352 91.529207 -0.000015 45.483398 0.000025 63.040481 0.860315 -2.643335 -2.564412 -23.565109 8.231028 4.637199 -8.634122 -0.225398 -1.273766 0.137314 -2.094875 -0.000002 -0.000000 0.000002 3.603928 -6.093932 61.169255 4.357080 -6.449200 68.055172 1.185858 -3.888936 33.904779 0.000004 0.000001 0.000001 3.603928 -6.093932 61.169255 4.357083 -6.449205 68.055172 1.185850 -3.888937 33.904779 -0.000000 -0.000001 -0.000002 3.603926 -6.093934 61.169255 4.357083 -6.449207 68.055165 1.185857 -3.888936 33.904776 -0.000001 -0.000001 -0.000000 3.603928 -6.093932 61.169255 4.357088 -6.449212 68.055172 1.185856 -3.888932 33.904776 -0.000002 0.000000 -0.000000 -54.041809 2.332964 20.072958 32.128431 2.320333 -3.995212 -1.401009 2.034007 -17.269006 -0.001831 -0.000000 0.000003 -0.000000 0.000001 -0.000000 -38.100964 -9.715154 -17.335754 48.984884 5.767325 6.346247 -12.023841 -0.881887 -3.657141 -4.069592 0.000011 0.000000 0.000000 0.000000 0.000000 
2.854013 67.903503 211.285721 0.867254 -12.967547 5.007723 11.429970 3.480121 -2.822574 20.338627 12.549712 -3.276363 20.527275 12.143397 -3.663414 -12.909490 -2.090777 -6.165038 -8.364566 -17.130116 -2.275978 0.000000 0.000000 0.000000 0.154437 4.227180 -5.412305 -40.164886 -3.772202 -69.332308 -0.001801 -88.900001 -0.001867 -10.612900 -0.596334 -10.899435 13.827853 6.834677 -4.397613 5.568745 20.518973 4.617249 0.418484 7.799957 4.649698 -0.000001 0.000005 0.000002 0.042014 -0.761136 6.320212 0.268384 1.907296 -16.018219 0.067401 0.963040 -8.006878 0.000000 -0.000001 0.000000 0.042226 -0.763047 6.336206 0.268920 1.909150 -16.034221 0.067404 0.963036 -8.006869 -0.000002 0.000001 0.000000 0.042014 -0.761136 6.320213 0.268384 1.907297 -16.018218 0.067399 0.963041 -8.006879 -0.000001 0.000001 -0.000000 -0.422621 3.266472 6.840802 0.267348 -2.149376 -16.509383 0.067403 0.963041 -8.006869 -0.000001 -0.000000 0.000001 0.923878 8.281687 3.365099 -54.939248 -2.763800 88.697315 0.000009 41.911209 0.000002 63.012429 -1.801731 -1.966928 -2.564324 -23.565990 8.231636 4.637200 -8.634121 -0.225405 -1.273769 0.137313 -2.094869 -0.000001 0.000000 -0.000002 2.634848 -5.452447 51.557785 3.206663 -5.858950 57.354854 0.850971 -3.338180 28.595349 -0.000003 -0.000000 -0.000000 2.634849 -5.452447 51.557789 3.206665 -5.858952 57.354854 0.850975 -3.338185 28.595355 0.000000 0.000001 0.000001 2.634865 -5.452451 51.557792 3.206659 -5.858942 57.354867 0.850972 -3.338180 28.595349 0.000000 -0.000000 -0.000001 2.634848 -5.452447 51.557789 3.206667 -5.858960 57.354854 0.850971 -3.338176 28.595352 -0.000001 -0.000000 -0.000001 -64.063479 -2.994440 16.725909 41.124470 -1.250165 0.535309 8.626362 0.496022 -14.049335 0.013664 0.000001 -0.000007 0.000000 0.000000 -0.000000 -48.970189 -6.889033 -23.236775 75.297529 9.334171 6.092686 -24.584743 0.964623 -3.921696 -9.033533 0.000014 -0.000001 0.000000 0.000002 0.000000 
